<svg width="202" height="164" viewBox="0 0 202 164" fill="none" xmlns="http://www.w3.org/2000/svg">
<path d="M145.8 113.707C136.179 149.614 99.272 170.92 63.3661 161.299C27.4601 151.678 6.15205 114.773 15.773 78.866C25.394 42.96 62.3011 21.651 98.2071 31.272C134.113 40.894 155.421 77.801 145.8 113.707Z" fill="#FFBA00"/>
<path d="M35.6361 142.818L0.580078 142.594L17.9181 112.128L35.6361 142.818Z" fill="#FFBA00"/>
<path d="M56.2003 85.399C65.8213 121.306 102.728 142.612 138.634 132.991C174.54 123.37 195.848 86.465 186.227 50.558C176.606 14.652 139.699 -6.65698 103.793 2.96402C67.8873 12.585 46.5793 49.493 56.2003 85.399Z" fill="#008FC2"/>
<path d="M166.364 114.509L201.42 114.285L184.082 83.819L166.364 114.509Z" fill="#008FC2"/>
<path d="M136.932 133.401C140.827 127.507 143.869 120.907 145.798 113.707C155.419 77.801 134.11 40.894 98.2053 31.273C86.9843 28.266 75.6653 28.281 65.1113 30.817C54.8393 46.336 51.0023 66.009 56.1983 85.399C65.6673 120.739 101.568 141.914 136.932 133.401Z" fill="#6DB700"/>
<path d="M87.3169 82.122C87.3169 85.718 84.4019 88.633 80.8059 88.633C77.2099 88.633 74.2949 85.718 74.2949 82.122C74.2949 78.526 77.2099 75.611 80.8059 75.611C84.4009 75.61 87.3169 78.526 87.3169 82.122Z" fill="white"/>
<path d="M107.511 82.122C107.511 85.718 104.596 88.633 101 88.633C97.4038 88.633 94.4888 85.718 94.4888 82.122C94.4888 78.526 97.4038 75.611 101 75.611C104.596 75.61 107.511 78.526 107.511 82.122Z" fill="white"/>
<path d="M127.706 82.122C127.706 85.718 124.791 88.633 121.195 88.633C117.599 88.633 114.684 85.718 114.684 82.122C114.684 78.526 117.599 75.611 121.195 75.611C124.79 75.61 127.706 78.526 127.706 82.122Z" fill="white"/>
</svg>
